<svg width="36" height="36" viewBox="0 0 36 36" fill="none" xmlns="http://www.w3.org/2000/svg">
<g clip-path="url(#clip0_407_491)">
<path d="M19.5 29.907C22.5259 29.522 25.2917 27.9992 27.2352 25.6482C29.1787 23.2971 30.1541 20.2943 29.9631 17.25C29.7721 14.2056 28.429 11.3482 26.2069 9.25857C23.9848 7.16891 21.0503 6.00378 18 6C14.9459 5.99773 12.0059 7.16001 9.77901 9.25002C7.55209 11.34 6.20586 14.2005 6.01461 17.2486C5.82337 20.2966 6.8015 23.3029 8.74972 25.6549C10.6979 28.0069 13.4696 29.5275 16.5 29.907V21H13.5V18H16.5V15.519C16.5 13.5135 16.71 12.786 17.1 12.0525C17.4842 11.3268 18.0779 10.7335 18.804 10.35C19.377 10.0425 20.0895 9.858 21.3345 9.7785C21.828 9.747 22.467 9.786 23.2515 9.8985V12.7485H22.5C21.1245 12.7485 20.556 12.813 20.217 12.9945C20.0147 13.0985 19.85 13.2632 19.746 13.4655C19.566 13.8045 19.5 14.1405 19.5 15.5175V18H23.25L22.5 21H19.5V29.907ZM18 33C9.7155 33 3 26.2845 3 18C3 9.7155 9.7155 3 18 3C26.2845 3 33 9.7155 33 18C33 26.2845 26.2845 33 18 33Z" fill="white"/>
</g>
<defs>
<clipPath id="clip0_407_491">
<rect width="36" height="36" fill="white"/>
</clipPath>
</defs>
</svg>
