<svg width="106" height="47" viewBox="0 0 106 47" fill="none" xmlns="http://www.w3.org/2000/svg">
<circle cx="92.5" cy="21.5" r="13.5" fill="#F2F3F5"/>
<path d="M12.3182 36.4373C10.4474 36.4373 8.75881 36.0729 7.25244 35.344C5.74607 34.5908 4.54341 33.461 3.64444 31.9547C2.76978 30.4483 2.33244 28.541 2.33244 26.2329V10.4889H6.99733V26.2693C6.99733 28.2616 7.47111 29.7437 8.41867 30.7156C9.39052 31.6874 10.7268 32.1733 12.4276 32.1733C14.104 32.1733 15.4281 31.6874 16.4 30.7156C17.3719 29.7437 17.8578 28.2616 17.8578 26.2693V10.4889H22.5227V26.2329C22.5227 28.541 22.061 30.4483 21.1378 31.9547C20.2145 33.461 18.9754 34.5908 17.4204 35.344C15.8898 36.0729 14.189 36.4373 12.3182 36.4373ZM26.5193 36V32.4284L38.2544 14.3884H26.6286V10.4889H43.6482V14.0604L31.8402 32.1004H43.7211V36H26.5193ZM55.9721 36.328C54.0406 36.328 52.3823 35.918 50.9975 35.098C49.6126 34.2598 48.5466 33.1027 47.7995 31.6267C47.0523 30.1324 46.6788 28.4104 46.6788 26.4607C46.6788 24.5109 47.0523 22.7889 47.7995 21.2947C48.5466 19.8004 49.6126 18.6342 50.9975 17.796C52.3823 16.9578 54.0406 16.5387 55.9721 16.5387C58.2681 16.5387 60.145 17.1127 61.6028 18.2607C63.0788 19.3904 63.999 20.9849 64.3635 23.044H60.5094C60.2726 22.0053 59.7623 21.1944 58.9788 20.6113C58.2135 20.01 57.193 19.7093 55.9175 19.7093C54.1499 19.7093 52.765 20.3107 51.7628 21.5133C50.7606 22.716 50.2595 24.3651 50.2595 26.4607C50.2595 28.5562 50.7606 30.2053 51.7628 31.408C52.765 32.5924 54.1499 33.1847 55.9175 33.1847C57.193 33.1847 58.2135 32.9113 58.9788 32.3647C59.7623 31.7998 60.2726 31.0253 60.5094 30.0413H64.3635C63.999 32.0093 63.0788 33.5491 61.6028 34.6607C60.145 35.7722 58.2681 36.328 55.9721 36.328ZM72.0524 36.328C70.8862 36.328 69.9296 36.1458 69.1824 35.7813C68.4353 35.3987 67.8796 34.8976 67.5151 34.278C67.1507 33.6584 66.9684 32.9751 66.9684 32.228C66.9684 30.9707 67.4604 29.9502 68.4444 29.1667C69.4284 28.3831 70.9044 27.9913 72.8724 27.9913H76.3164V27.6633C76.3164 26.734 76.0522 26.0507 75.5238 25.6133C74.9953 25.176 74.3393 24.9573 73.5558 24.9573C72.8451 24.9573 72.2256 25.1304 71.6971 25.4767C71.1687 25.8047 70.8407 26.2967 70.7131 26.9527H67.2964C67.3876 25.9687 67.7156 25.1122 68.2804 24.3833C68.8636 23.6544 69.6107 23.0987 70.5218 22.716C71.4329 22.3151 72.4533 22.1147 73.5831 22.1147C75.5147 22.1147 77.0362 22.5976 78.1478 23.5633C79.2593 24.5291 79.8151 25.8958 79.8151 27.6633V36H76.8358L76.5078 33.8133C76.1069 34.5422 75.542 35.1436 74.8131 35.6173C74.1024 36.0911 73.1822 36.328 72.0524 36.328ZM72.8451 33.5947C73.8473 33.5947 74.6218 33.2667 75.1684 32.6107C75.7333 31.9547 76.0887 31.1438 76.2344 30.178H73.2551C72.3258 30.178 71.6607 30.3511 71.2598 30.6973C70.8589 31.0253 70.6584 31.4353 70.6584 31.9273C70.6584 32.4558 70.8589 32.8658 71.2598 33.1573C71.6607 33.4489 72.1891 33.5947 72.8451 33.5947ZM83.1538 36V22.4427H86.2698L86.5978 24.9847C87.0898 24.11 87.7549 23.4176 88.5932 22.9073C89.4496 22.3789 90.4518 22.1147 91.5998 22.1147V25.8047H90.6158C89.8505 25.8047 89.1672 25.9231 88.5658 26.16C87.9645 26.3969 87.4907 26.8069 87.1445 27.39C86.8165 27.9731 86.6525 28.784 86.6525 29.8227V36H83.1538Z" fill="black"/>
<path d="M45.4488 39.4167H92.2012V40.7833H45.4488V39.4167Z" fill="black"/>
</svg>
