<svg width="100" height="16" viewBox="0 0 100 16" fill="none" xmlns="http://www.w3.org/2000/svg">
<g clip-path="url(#clip0_407_374)">
<path d="M8.00002 12.1733L3.29802 14.8053L4.34802 9.51998L0.391357 5.86131L5.74269 5.22665L8.00002 0.333313L10.2574 5.22665L15.6087 5.86131L11.652 9.51998L12.702 14.8053L8.00002 12.1733Z" fill="#FED712"/>
</g>
<g clip-path="url(#clip1_407_374)">
<path d="M29 12.1733L24.298 14.8053L25.348 9.51998L21.3914 5.86131L26.7427 5.22665L29 0.333313L31.2574 5.22665L36.6087 5.86131L32.652 9.51998L33.702 14.8053L29 12.1733Z" fill="#FED712"/>
</g>
<g clip-path="url(#clip2_407_374)">
<path d="M50 12.1733L45.298 14.8053L46.348 9.51998L42.3914 5.86131L47.7427 5.22665L50 0.333313L52.2574 5.22665L57.6087 5.86131L53.652 9.51998L54.702 14.8053L50 12.1733Z" fill="#FED712"/>
</g>
<g clip-path="url(#clip3_407_374)">
<path d="M71 12.1733L66.298 14.8053L67.348 9.51998L63.3914 5.86131L68.7427 5.22665L71 0.333313L73.2574 5.22665L78.6087 5.86131L74.652 9.51998L75.702 14.8053L71 12.1733Z" fill="#FED712"/>
</g>
<g clip-path="url(#clip4_407_374)">
<path d="M92 12.1733L87.298 14.8053L88.348 9.51998L84.3914 5.86131L89.7427 5.22665L92 0.333313L94.2574 5.22665L99.6087 5.86131L95.652 9.51998L96.702 14.8053L92 12.1733Z" fill="#FED712"/>
</g>
<defs>
<clipPath id="clip0_407_374">
<rect width="16" height="16" fill="white"/>
</clipPath>
<clipPath id="clip1_407_374">
<rect width="16" height="16" fill="white" transform="translate(21)"/>
</clipPath>
<clipPath id="clip2_407_374">
<rect width="16" height="16" fill="white" transform="translate(42)"/>
</clipPath>
<clipPath id="clip3_407_374">
<rect width="16" height="16" fill="white" transform="translate(63)"/>
</clipPath>
<clipPath id="clip4_407_374">
<rect width="16" height="16" fill="white" transform="translate(84)"/>
</clipPath>
</defs>
</svg>
