<svg width="36" height="36" viewBox="0 0 36 36" fill="none" xmlns="http://www.w3.org/2000/svg">
<g clip-path="url(#clip0_407_497)">
<path d="M18 30C21.1826 30 24.2348 28.7357 26.4853 26.4853C28.7357 24.2348 30 21.1826 30 18C30 14.8174 28.7357 11.7652 26.4853 9.51472C24.2348 7.26428 21.1826 6 18 6C14.8174 6 11.7652 7.26428 9.51472 9.51472C7.26428 11.7652 6 14.8174 6 18C6 21.1826 7.26428 24.2348 9.51472 26.4853C11.7652 28.7357 14.8174 30 18 30ZM18 33C9.7155 33 3 26.2845 3 18C3 9.7155 9.7155 3 18 3C26.2845 3 33 9.7155 33 18C33 26.2845 26.2845 33 18 33ZM13.335 19.755L9.588 18.5865C8.778 18.339 8.7735 17.781 9.7695 17.3805L24.369 11.7405C25.2165 11.3955 25.6965 11.832 25.422 12.9255L22.9365 24.6555C22.7625 25.491 22.26 25.6905 21.5625 25.305L17.736 22.473L15.9525 24.195C15.7695 24.372 15.621 24.5235 15.339 24.561C15.0585 24.6 14.8275 24.516 14.658 24.051L13.353 19.7445L13.335 19.7565V19.755Z" fill="white"/>
</g>
<defs>
<clipPath id="clip0_407_497">
<rect width="36" height="36" fill="white"/>
</clipPath>
</defs>
</svg>
